<svg
	xmlns="http://www.w3.org/2000/svg"
	version="1.1"
	xmlns:xlink="http://www.w3.org/1999/xlink"
	xmlns:svgjs="http://svgjs.dev/svgjs"
	width="24"
	height="24"
>
	<svg
		xmlns="http://www.w3.org/2000/svg"
		width="24"
		height="24"
		viewBox="0 0 24 24"
		fill="none"
		stroke="currentColor"
		stroke-width="1"
		stroke-linecap="round"
		stroke-linejoin="round"
	>
		<path
			d="M10.5 2.75a1.5 1.5 0 0 1 3 0h1.5a1 1 0 0 1 1 1v0.5a1 1 0 0 1 -1 1h-6a1 1 0 0 1 -1 -1v-0.5a1 1 0 0 1 1 -1h1"
			fill="lightskyblue"
		></path>
		<path d="M13.625 7.625a3 3 0 1 0 1.625 2.625"></path>
		<path d="m10.5 10 1.5 1.5 3-3"></path>

		<path
			d="M16.5 4h0.5a2 2 0 0 1 2 2v14.5a2 2 0 0 1-2 2H7a2 2 0 0 1-2-2V6a2 2 0 0 1 2-2h1"
		></path>

		<path d="M12 16h4.5"></path>
		<path d="M12 19.75h4.5"></path>
		<rect
			width="2.5"
			height="2.5"
			x="7.5"
			y="14.75"
			rx="0.5"
			ry="0.5"
			fill="lightskyblue"
		></rect>
		<rect
			width="2.5"
			height="2.5"
			x="7.5"
			y="18.5"
			rx="0.5"
			ry="0.5"
			fill="lightskyblue"
		></rect>
	</svg>
	<style>
		@media (prefers-color-scheme: light) {
			:root {
				filter: none;
			}
		}
		@media (prefers-color-scheme: dark) {
			:root {
				filter: none;
			}
		}
	</style>
</svg>
